<svg class="diagram-root" style="background: #f5f6f6" xmlns="http://www.w3.org/2000/svg" xmlns:xlink="http://www.w3.org/1999/xlink"><style>.diagram-root { font-family: "Helvetica Neue", sans-serif; font-size: 12px; } .t { overflow: visible; } .t-bg { y: 40; fill: #fff;   } .th { fill: #005aa0;   } .tht { fill: #fff; font-size: 14px;  } .tf { fill: #323c46; overflow: visible; } .tf.pk { fill: #005aa0; font-weight: bold; } .tf.fk { font-weight: bold; } .ty { fill: #adb1b5; font-weight: normal; text-anchor: end; } .r { fill: transparent; stroke: #c3c3c3; stroke-width: 1; } .l { stroke: 1; } .i { fill: #c2c7ce; stroke: #c2c7ce; } .i.ix { fill: #afb3b6; stroke: #000; } .fa { fill: transparent; overflow: visible; } .fa .bg.hover { fill: #f7f7f7; } .c { cy: 12; r: 4; stroke: #d2d2dc; fill: #d2d2dc; } .hr { fill: transparent; stroke: #323c46; stroke-opacity: 0.035; stroke-width: 13; } .dc { stroke: #fa5a3c; fill: #fa5a3c; } .x { stroke: white; stroke-width: 1; } .hl .th { fill: #1b9bff; } .hl .tht {  } .fhl .bg { fill: #e7f4ff; } .fhls .bg {  } .r.hl { stroke: #1b9bff; } .dim { opacity: 0.25; }</style><g class="drawing-wrapper" transform="translate(-64, -55) scale(1,1)"><g class="rs"><path d="M 859 370 m -1, 0 a 1,1 0 1,0 2,0 a 1,1 0 1,0 -2,0 M 859 370 m -0.5, 0 a 0.5,0.5 0 1,0 1,0 a 0.5,0.5 0 1,0 -1,0  M859 370 L859 370 847 370 M853 376 L853 376 853 364 M847 370 Q 801.75 370, 756.5 307.5 T 666 245 M 654 245 m -1, 0 a 1,1 0 1,0 2,0 a 1,1 0 1,0 -2,0 M 654 245 m -0.5, 0 a 0.5,0.5 0 1,0 1,0 a 0.5,0.5 0 1,0 -1,0  M654 245 L654 245 666 245 M 654 251 m -1, 0 a 1,1 0 1,0 2,0 a 1,1 0 1,0 -2,0 M 654 251 m -0.5, 0 a 0.5,0.5 0 1,0 1,0 a 0.5,0.5 0 1,0 -1,0  M654 251 L654 251 661 245 654 239 M 654 239 m -1, 0 a 1,1 0 1,0 2,0 a 1,1 0 1,0 -2,0 M 654 239 m -0.5, 0 a 0.5,0.5 0 1,0 1,0 a 0.5,0.5 0 1,0 -1,0 " id="h106845284" class="r"></path><path d="M 859 395 m -1, 0 a 1,1 0 1,0 2,0 a 1,1 0 1,0 -2,0 M 859 395 m -0.5, 0 a 0.5,0.5 0 1,0 1,0 a 0.5,0.5 0 1,0 -1,0  M859 395 L859 395 847 395 M853 401 L853 401 853 389 M847 395 Q 801.25 395, 755.5 473 T 664 551 M 652 551 m -1, 0 a 1,1 0 1,0 2,0 a 1,1 0 1,0 -2,0 M 652 551 m -0.5, 0 a 0.5,0.5 0 1,0 1,0 a 0.5,0.5 0 1,0 -1,0  M652 551 L652 551 664 551 M 652 557 m -1, 0 a 1,1 0 1,0 2,0 a 1,1 0 1,0 -2,0 M 652 557 m -0.5, 0 a 0.5,0.5 0 1,0 1,0 a 0.5,0.5 0 1,0 -1,0  M652 557 L652 557 659 551 652 545 M 652 545 m -1, 0 a 1,1 0 1,0 2,0 a 1,1 0 1,0 -2,0 M 652 545 m -0.5, 0 a 0.5,0.5 0 1,0 1,0 a 0.5,0.5 0 1,0 -1,0 " id="h730141189" class="r"></path><path d="M 237 386 m -1, 0 a 1,1 0 1,0 2,0 a 1,1 0 1,0 -2,0 M 237 386 m -0.5, 0 a 0.5,0.5 0 1,0 1,0 a 0.5,0.5 0 1,0 -1,0  M237 386 L237 386 249 386 M243 392 L243 392 243 380 M249 386 Q 309 386, 369 468.5 T 489 551 M 501 551 m -1, 0 a 1,1 0 1,0 2,0 a 1,1 0 1,0 -2,0 M 501 551 m -0.5, 0 a 0.5,0.5 0 1,0 1,0 a 0.5,0.5 0 1,0 -1,0  M501 551 L501 551 489 551 M495 557 L495 557 495 545" id="h3936989733" class="r"></path><path d="M 237 411 m -1, 0 a 1,1 0 1,0 2,0 a 1,1 0 1,0 -2,0 M 237 411 m -0.5, 0 a 0.5,0.5 0 1,0 1,0 a 0.5,0.5 0 1,0 -1,0  M237 411 L237 411 249 411 M243 417 L243 417 243 405 M249 411 Q 311 411, 373 328 T 497 245 M 509 245 m -1, 0 a 1,1 0 1,0 2,0 a 1,1 0 1,0 -2,0 M 509 245 m -0.5, 0 a 0.5,0.5 0 1,0 1,0 a 0.5,0.5 0 1,0 -1,0  M509 245 L509 245 497 245 M503 251 L503 251 503 239" id="h634767023" class="r"></path><path d="M 777 142 m -1, 0 a 1,1 0 1,0 2,0 a 1,1 0 1,0 -2,0 M 777 142 m -0.5, 0 a 0.5,0.5 0 1,0 1,0 a 0.5,0.5 0 1,0 -1,0  M777 142 L777 142 765 142 M771 148 L771 148 771 136 M765 142 Q 740.25 142, 715.5 193.5 T 666 245 M 654 245 m -1, 0 a 1,1 0 1,0 2,0 a 1,1 0 1,0 -2,0 M 654 245 m -0.5, 0 a 0.5,0.5 0 1,0 1,0 a 0.5,0.5 0 1,0 -1,0  M654 245 L654 245 666 245 M660 251 L660 251 660 239" id="h221257298" class="r"></path><path d="M 310 144 m -1, 0 a 1,1 0 1,0 2,0 a 1,1 0 1,0 -2,0 M 310 144 m -0.5, 0 a 0.5,0.5 0 1,0 1,0 a 0.5,0.5 0 1,0 -1,0  M310 144 L310 144 322 144 M316 150 L316 150 316 138 M322 144 Q 365.75 144, 409.5 194.5 T 497 245 M 509 245 m -1, 0 a 1,1 0 1,0 2,0 a 1,1 0 1,0 -2,0 M 509 245 m -0.5, 0 a 0.5,0.5 0 1,0 1,0 a 0.5,0.5 0 1,0 -1,0  M509 245 L509 245 497 245 M 509 251 m -1, 0 a 1,1 0 1,0 2,0 a 1,1 0 1,0 -2,0 M 509 251 m -0.5, 0 a 0.5,0.5 0 1,0 1,0 a 0.5,0.5 0 1,0 -1,0  M509 251 L509 251 502 245 509 239 M 509 239 m -1, 0 a 1,1 0 1,0 2,0 a 1,1 0 1,0 -2,0 M 509 239 m -0.5, 0 a 0.5,0.5 0 1,0 1,0 a 0.5,0.5 0 1,0 -1,0 " id="h1168633520" class="r"></path></g><g class="hrs"></g><g class="ts"><svg width="151" height="100" x="501" y="494" id="h3708248841" class="t"><rect height="40" width="151" class="th"></rect><text x="13" y="25" class="tht">Departments</text><rect height="60" width="151" class="t-bg" y="40"></rect><text x="13" y="61" class="tf pk">dept_no<tspan x="138" class="ty">varchar</tspan></text><path d="M7,14A2,2 0 0,1 5,12A2,2 0 0,1 7,10A2,2 0 0,1 9,12A2,2 0 0,1 7,14M12.65,10C11.83,7.67 9.61,6 7, 6A6, 6 0 0, 0 1, 12A6, 6 0 0, 0 7, 18C9.61, 18 11.83, 16.33 12.65, 14H17V18H21V14H23V10H12.65Z" class="i pk" transform="translate(78, 48) scale(0.65)"></path><text x="13" y="86" class="tf">dept_name<tspan x="138" class="ty">varchar</tspan></text></svg><svg width="131" height="150" x="859" y="313" id="h1090417462" class="t"><rect height="40" width="131" class="th"></rect><text x="13" y="25" class="tht">dept_emp</text><rect height="110" width="131" class="t-bg" y="40"></rect><text x="13" y="61" class="tf pk">emp_no<tspan x="118" class="ty">int</tspan></text><path d="M7,14A2,2 0 0,1 5,12A2,2 0 0,1 7,10A2,2 0 0,1 9,12A2,2 0 0,1 7,14M12.65,10C11.83,7.67 9.61,6 7, 6A6, 6 0 0, 0 1, 12A6, 6 0 0, 0 7, 18C9.61, 18 11.83, 16.33 12.65, 14H17V18H21V14H23V10H12.65Z" class="i pk" transform="translate(85, 48) scale(0.65)"></path><text x="13" y="86" class="tf fk">dept_no<tspan x="118" class="ty">varchar</tspan></text><text x="13" y="111" class="tf">from_date<tspan x="118" class="ty">date</tspan></text><text x="13" y="136" class="tf">to_date<tspan x="118" class="ty">date</tspan></text></svg><svg width="151" height="150" x="86" y="329" id="h1676682957" class="t"><rect height="40" width="151" class="th"></rect><text x="13" y="25" class="tht">dept_manager</text><rect height="110" width="151" class="t-bg" y="40"></rect><text x="13" y="61" class="tf pk">dept_no<tspan x="138" class="ty">varchar</tspan></text><path d="M7,14A2,2 0 0,1 5,12A2,2 0 0,1 7,10A2,2 0 0,1 9,12A2,2 0 0,1 7,14M12.65,10C11.83,7.67 9.61,6 7, 6A6, 6 0 0, 0 1, 12A6, 6 0 0, 0 7, 18C9.61, 18 11.83, 16.33 12.65, 14H17V18H21V14H23V10H12.65Z" class="i pk" transform="translate(78, 48) scale(0.65)"></path><text x="13" y="86" class="tf fk">emp_no<tspan x="138" class="ty">int</tspan></text><text x="13" y="111" class="tf">from_date<tspan x="138" class="ty">date</tspan></text><text x="13" y="136" class="tf">to_date<tspan x="138" class="ty">date</tspan></text></svg><svg width="145" height="200" x="509" y="188" id="h3299212598" class="t"><rect height="40" width="145" class="th"></rect><text x="13" y="25" class="tht">Employees</text><rect height="160" width="145" class="t-bg" y="40"></rect><text x="13" y="61" class="tf pk">emp_no<tspan x="132" class="ty">int</tspan></text><path d="M7,14A2,2 0 0,1 5,12A2,2 0 0,1 7,10A2,2 0 0,1 9,12A2,2 0 0,1 7,14M12.65,10C11.83,7.67 9.61,6 7, 6A6, 6 0 0, 0 1, 12A6, 6 0 0, 0 7, 18C9.61, 18 11.83, 16.33 12.65, 14H17V18H21V14H23V10H12.65Z" class="i pk" transform="translate(99, 48) scale(0.65)"></path><text x="13" y="86" class="tf">birth_date<tspan x="132" class="ty">date</tspan></text><text x="13" y="111" class="tf">first_name<tspan x="132" class="ty">varchar</tspan></text><text x="13" y="136" class="tf">last_name<tspan x="132" class="ty">varchar</tspan></text><text x="13" y="161" class="tf">gender<tspan x="132" class="ty">varchar</tspan></text><text x="13" y="186" class="tf">hire_date<tspan x="132" class="ty">date</tspan></text></svg><svg width="142" height="150" x="777" y="85" id="h3858243705" class="t"><rect height="40" width="142" class="th"></rect><text x="13" y="25" class="tht">Salaries</text><rect height="110" width="142" class="t-bg" y="40"></rect><text x="13" y="61" class="tf pk">emp_no<tspan x="129" class="ty">int</tspan></text><path d="M7,14A2,2 0 0,1 5,12A2,2 0 0,1 7,10A2,2 0 0,1 9,12A2,2 0 0,1 7,14M12.65,10C11.83,7.67 9.61,6 7, 6A6, 6 0 0, 0 1, 12A6, 6 0 0, 0 7, 18C9.61, 18 11.83, 16.33 12.65, 14H17V18H21V14H23V10H12.65Z" class="i pk" transform="translate(96, 48) scale(0.65)"></path><text x="13" y="86" class="tf">salary<tspan x="129" class="ty">int</tspan></text><text x="13" y="111" class="tf">from_date<tspan x="129" class="ty">varchar</tspan></text><text x="13" y="136" class="tf">to_date<tspan x="129" class="ty">varchar</tspan></text></svg><svg width="126" height="150" x="184" y="87" id="h3517680912" class="t"><rect height="40" width="126" class="th"></rect><text x="13" y="25" class="tht">Titles</text><rect height="110" width="126" class="t-bg" y="40"></rect><text x="13" y="61" class="tf pk">emp_no<tspan x="113" class="ty">int</tspan></text><path d="M7,14A2,2 0 0,1 5,12A2,2 0 0,1 7,10A2,2 0 0,1 9,12A2,2 0 0,1 7,14M12.65,10C11.83,7.67 9.61,6 7, 6A6, 6 0 0, 0 1, 12A6, 6 0 0, 0 7, 18C9.61, 18 11.83, 16.33 12.65, 14H17V18H21V14H23V10H12.65Z" class="i pk" transform="translate(80, 48) scale(0.65)"></path><text x="13" y="86" class="tf">title<tspan x="113" class="ty">varchar</tspan></text><text x="13" y="111" class="tf">from_date<tspan x="113" class="ty">date</tspan></text><text x="13" y="136" class="tf">to_date<tspan x="113" class="ty">date</tspan></text></svg></g></g><text class="qdbd-link" x="10" y="20">www.quickdatabasediagrams.com</text></svg>